<svg version="1.2" xmlns="http://www.w3.org/2000/svg" viewBox="0 0 32 32" width="32" height="32"><style>.a{fill:#fff}</style><path class="a" d="m29.4 28.4l-3.4-5.9c-1.5 1.4-3.2 2.5-5.1 3.2l3.3 5.7q0.1 0.3 0.4 0.4 0.2 0.1 0.5 0.1 0.3-0.1 0.5-0.3 0.2-0.2 0.2-0.4l0.4-2.3 2.1 0.8q0.3 0.1 0.6 0 0.2-0.1 0.4-0.3 0.2-0.2 0.2-0.5 0-0.2-0.1-0.5z"/><path class="a" d="m2.6 28.4q-0.1 0.3-0.1 0.5 0 0.3 0.2 0.5 0.2 0.2 0.4 0.3 0.3 0.1 0.6 0l2.1-0.8 0.4 2.3q0 0.2 0.2 0.4 0.2 0.2 0.5 0.3 0.3 0 0.5-0.1 0.3-0.1 0.4-0.4l3.3-5.6c-1.9-0.8-3.6-1.9-5.1-3.3z"/><path class="a" d="m11.6 16.3v-6.1c0-0.4-0.4-0.8-0.8-0.8-0.5 0-0.9 0.4-0.9 0.8v6c0 0.5 0.4 0.9 0.9 0.9 0.4 0 0.8-0.4 0.8-0.9z"/><path class="a" d="m28.4 12.5c0-2.4-0.8-4.8-2.1-6.9-1.4-2-3.3-3.6-5.6-4.5-2.2-1-4.7-1.2-7.1-0.7-2.4 0.4-4.6 1.6-6.4 3.3-1.7 1.8-2.9 4-3.3 6.4-0.5 2.4-0.3 4.9 0.7 7.1 0.9 2.3 2.5 4.2 4.5 5.6 2.1 1.3 4.5 2.1 6.9 2.1 3.3 0 6.4-1.3 8.7-3.7 2.4-2.3 3.7-5.4 3.7-8.7zm-7.1 5.9h-4.6q-1.7 0-3.3-0.6v0.2q0 0.4-0.3 0.6-0.2 0.3-0.6 0.3h-3.5q-0.4 0-0.6-0.3-0.3-0.2-0.3-0.6v-9.5q0-0.4 0.3-0.6 0.2-0.3 0.6-0.3h3.5q0.4 0 0.6 0.3 0.3 0.2 0.3 0.6v0.6h0.1c0.4 0 0.8-0.1 1.1-0.5 0.4-0.3 0.5-0.7 0.5-1.1v-3q0-0.4 0.3-0.6 0.2-0.3 0.6-0.3h1q0.7 0 1.3 0.3 0.6 0.2 1.1 0.7 0.5 0.5 0.7 1.1 0.3 0.6 0.3 1.3v1.6h1.6q0.7 0 1.3 0.3 0.5 0.3 0.9 0.8 0.5 0.5 0.6 1.1 0.2 0.6 0.1 1.2l-0.8 4c-0.1 0.7-0.5 1.3-1 1.7-0.5 0.4-1.2 0.7-1.8 0.7z"/><path class="a" d="m22 10.4h-2.5q-0.4 0-0.6-0.3-0.3-0.2-0.3-0.6v-2.5c0-0.4-0.1-0.8-0.5-1.1-0.3-0.4-0.7-0.5-1.1-0.5q-0.1 0-0.1 0.1v2c0 0.9-0.4 1.8-1 2.4-0.6 0.6-1.5 1-2.4 1q-0.1 0-0.1 0.1v2.9c0 1.2 0.7 2.4 1.9 2.6q0.7 0.1 1.4 0.1h4.6q0.4 0 0.7-0.2 0.3-0.3 0.4-0.7l0.7-4q0.1-0.2 0-0.5 0-0.2-0.2-0.4-0.2-0.2-0.4-0.3-0.2-0.1-0.5-0.1z"/></svg>