<svg width="32" height="32" viewBox="0 0 32 32" fill="none" xmlns="http://www.w3.org/2000/svg">
<g clip-path="url(#clip0_10073_11337)">
<path d="M3.76281 20.8154L0.0353737 24.5429C-0.0273138 24.6026 -0.00387629 24.7107 0.0834987 24.7366L4.57275 26.1003C5.20962 26.2941 5.70587 26.7903 5.89956 27.4271L7.26325 31.9164C7.28912 32.0037 7.39725 32.0272 7.457 31.9645L12.4444 26.9771C8.75431 26.0605 5.70787 23.76 3.76281 20.8154Z" fill="white"/>
<path d="M31.9646 24.5429L28.2372 20.8154C26.306 23.7389 23.269 26.0547 19.5555 26.9772L24.5429 31.9646C24.6026 32.0272 24.7107 32.0038 24.7366 31.9164L26.1003 27.4272C26.294 26.7903 26.7903 26.2941 27.4272 26.1004L31.9164 24.7367C32.004 24.7106 32.0272 24.6024 31.9646 24.5429Z" fill="white"/>
<path d="M28.7666 12.7666C28.7666 5.72738 23.0398 0 16 0C8.96021 0 3.23346 5.72738 3.23346 12.7666C3.23346 19.1313 7.91965 24.436 14.0382 25.3831C21.7886 26.5888 28.7666 20.5561 28.7666 12.7666ZM6.0484 15.8777C3.94296 9.14644 9.01133 2.34181 16 2.34181C23.8071 2.34181 28.9673 10.7324 25.1616 17.7396C20.7683 25.799 8.81352 24.6731 6.0484 15.8777Z" fill="white"/>
<path d="M16 4.2168C11.2858 4.2168 7.44958 8.05236 7.44958 12.7666C7.44958 19.7024 15.3131 23.7471 20.9443 19.7383C22.1508 18.8819 23.1333 17.7112 23.7655 16.3434C26.3924 10.688 22.2047 4.2168 16 4.2168ZM20.3155 11.5673C20.2088 11.6465 15.0142 15.502 14.9844 15.5241C14.6092 15.8037 14.0755 15.7662 13.7419 15.4129C11.3558 12.87 11.5467 13.073 11.4895 13.0129C11.0885 12.586 11.1722 11.8954 11.6738 11.578C11.6745 11.5774 11.6751 11.5767 11.6757 11.5767C12.0482 11.343 12.5451 11.3974 12.857 11.7299C13.3615 12.2676 13.0219 11.9057 14.5375 13.5204C14.7009 13.3986 16.6233 11.9725 19.268 10.0099C19.6836 9.70111 20.2711 9.78798 20.5792 10.2036C20.8616 10.5826 20.8606 11.1634 20.3155 11.5673Z" fill="white"/>
</g>
<defs>
<clipPath id="clip0_10073_11337">
<rect width="32" height="32" fill="white"/>
</clipPath>
</defs>
</svg>
