<svg version="1.2" xmlns="http://www.w3.org/2000/svg" viewBox="0 0 32 28" width="32" height="28"><style>.a{fill:#fff}</style><path class="a" d="m19.3 5.2c1.5 0.9 2.5 2.5 2.7 4.3q0.9 0.4 2 0.4c2.6 0 4.7-2.1 4.7-4.7 0-2.6-2.1-4.7-4.7-4.7-2.6 0-4.7 2.1-4.7 4.7zm-3.1 9.6c2.6 0 4.7-2.1 4.7-4.7 0-2.6-2.1-4.7-4.7-4.7-2.6 0-4.7 2.1-4.7 4.7 0 2.6 2.1 4.7 4.7 4.7zm2 0.3h-4c-3.3 0-6 2.7-6 6v4.9l0.4 0.1c3.1 1 5.9 1.4 8.2 1.4 4.4 0 6.9-1.3 7.1-1.4l0.3-0.1v-4.9c0-3.3-2.7-6-6-6zm7.8-4.9h-4c0 1.6-0.7 3-1.7 4.1 2.9 0.8 5.1 3.6 5.1 6.8v1.5c3.9-0.1 6.1-1.2 6.3-1.3l0.3-0.2v-4.8c0-3.4-2.7-6.1-6-6.1zm-18-0.3c0.9 0 1.8-0.2 2.5-0.7 0.2-1.5 1-2.8 2.2-3.7q0-0.1 0-0.3c0-2.6-2.1-4.7-4.7-4.7-2.6 0-4.7 2.1-4.7 4.7 0 2.6 2.1 4.7 4.7 4.7zm4.2 4.4c-1-1-1.7-2.5-1.8-4q-0.2-0.1-0.4-0.1h-4c-3.3 0-6 2.7-6 6v4.9 0.1l0.3 0.1c2.6 0.8 4.8 1.2 6.8 1.3v-1.5c0-3.2 2.2-6 5.1-6.8z"/></svg>