<svg version="1.2" xmlns="http://www.w3.org/2000/svg" viewBox="0 0 32 32" width="32" height="32"><style>.a{fill:#fff}</style><path class="a" d="m11.9 19.1c-0.4-0.5-0.9-0.8-1.4-0.8-0.1 0-0.3 0.1-0.4 0.2l-3.3 3.7c-0.2 0.2-0.2 0.6-0.1 0.7 0 0.4 0.3 0.9 0.6 1.2 0.5 0.5 1 0.8 1.4 0.8 0.1 0 0.3-0.1 0.4-0.2l3.4-3.7c0.3-0.3 0.1-1.2-0.6-1.9z"/><path class="a" d="m9.3 16.8c-0.1-0.5-0.4-0.9-0.7-1.3-0.4-0.4-1-0.7-1.4-0.7-0.1 0-0.3 0-0.4 0.1l-3.4 3.7c-0.1 0.2-0.1 0.6-0.1 0.7 0.1 0.4 0.4 0.9 0.7 1.3 0.4 0.4 1 0.7 1.4 0.7 0.1 0 0.3 0 0.4-0.1l3.3-3.7c0.2-0.2 0.2-0.6 0.2-0.7z"/><path class="a" d="m15.2 22.6c-0.4-0.4-0.9-0.7-1.4-0.7-0.1 0-0.3 0-0.4 0.2l-3.3 3.6c-0.3 0.4-0.1 1.3 0.6 2 0.4 0.5 0.9 0.7 1.3 0.7 0.2 0 0.3 0 0.5-0.1l3.3-3.7c0.3-0.3 0.1-1.2-0.6-2z"/><path class="a" d="m17.2 25.5c-0.2 0-0.3 0-0.5 0.1l-3.3 3.7c-0.2 0.2-0.1 0.6-0.1 0.7 0.1 0.4 0.3 0.9 0.7 1.3 0.4 0.4 0.9 0.7 1.4 0.7 0.1 0 0.3 0 0.4-0.2l3.3-3.6c0.3-0.4 0.1-1.3-0.5-2-0.5-0.5-1-0.7-1.4-0.7z"/><path class="a" d="m29.4 3.3c-1.6-1.8-3.8-2.8-6.2-2.8-2.3 0-4.5 1-6.2 2.8l-4.5 5c-0.2 0.2-0.2 0.3-0.2 0.4 0 0.1 0 0.3 0.2 0.4 0.9 0.8 2.1 0.9 3.1 0.2l5.4-3.4c0.3-0.2 0.7-0.1 0.9 0.3 0.2 0.3 0.1 0.8-0.3 1l-0.4 0.3 0.6 0.6q0 0 0 0l7 7.7q0.4 0.4 0.6 1c1.7-1.8 2.6-4.2 2.6-6.7 0-2.6-0.9-5-2.6-6.8z"/><path class="a" d="m20.8 9.2q0 0 0 0l-0.8-1-3.7 2.4c-1.5 0.9-3.3 0.8-4.6-0.3-0.4-0.3-0.7-0.9-0.7-1.5-0.1-0.5 0.1-1.1 0.5-1.5l3.8-4.2-0.2-0.1c-1.7-1.9-4-3-6.5-3-2.3 0-4.5 1-6.1 2.7-3.4 3.8-3.3 9.9 0.2 13.8l0.4 0.4 2.7-3q0.6-0.6 1.4-0.6c0.8 0 1.6 0.4 2.3 1.2 0.6 0.5 0.9 1.3 1.1 2q0 0.2 0 0.4c0.8 0 1.6 0.4 2.3 1.1 0.6 0.8 1 1.6 1 2.5 0.8 0 1.6 0.4 2.3 1.1 0.7 0.7 1 1.6 1.1 2.4 0.7 0 1.5 0.4 2.2 1.2 0.5 0.5 0.9 1.2 1 1.9q0.4-0.1 0.6-0.4c0.7-0.7 0.7-1.9 0-2.6l-7-7.6q-0.2-0.3-0.2-0.6 0-0.3 0.2-0.5c0.3-0.3 0.7-0.3 1 0l7 7.6q0 0 0 0c0.7 0.8 1.7 0.8 2.4 0 0.3-0.3 0.5-0.8 0.5-1.3 0-0.5-0.2-0.9-0.5-1.3l-7-7.6c-0.3-0.3-0.3-0.7 0-1 0.2-0.3 0.7-0.3 0.9 0l7 7.6c0.7 0.7 1.8 0.7 2.4 0 0.3-0.3 0.5-0.8 0.5-1.3 0-0.5-0.2-1-0.5-1.3z"/></svg>