<svg width="47" height="47" viewBox="0 0 47 47" fill="none" xmlns="http://www.w3.org/2000/svg">
<path opacity="0.5" d="M23.2258 0L23.2305 23.203L32.114 1.76795L23.2386 23.2066L39.6488 6.80269L23.2452 23.2129L44.6838 14.3377L23.2487 23.2213L46.4517 23.2258L23.2487 23.2305L44.6838 32.114L23.2452 23.2386L39.6488 39.6488L23.2386 23.2452L32.114 44.6838L23.2305 23.2487L23.2258 46.4517L23.2213 23.2487L14.3377 44.6838L23.2129 23.2452L6.80269 39.6488L23.2066 23.2386L1.76795 32.114L23.203 23.2305L0 23.2258L23.203 23.2213L1.76795 14.3377L23.2066 23.2129L6.80269 6.80269L23.2129 23.2066L14.3377 1.76795L23.2213 23.203L23.2258 0Z" fill="#B8B08C" stroke="#93A87E" stroke-width="1.54839"/>
</svg>
